# xmcd
#
# Track frame offsets: 
#        150
#        11551
#        25163
#        37814
#        51614
#        61850
#        71744
#        84396
#        94790
#        105283
#        120021
#        131722
#        145553
#        156327
#        168065
#        178003
#        190653
#
# Disc length: 2769 seconds
#
# Revision: 1
# Processed by: cddbd v1.5.2PL0 Copyright (c) Steve Scherf et al.
# Submitted via: ExactAudioCopy v1.0b1
#
DISCID=cf0acf11
DTITLE=Ralph Stanley - Poor Rambler [CD1]
DYEAR=2002
DGENRE=Bluegrass
TTITLE0=Sharecropper's Son
TTITLE1=Hemlock And Primroses
TTITLE2=That Beautiful Woman
TTITLE3=Poor Rambler
TTITLE4=Lonesome
TTITLE5=Lost Train
TTITLE6=Row Hoe
TTITLE7=Wonderful World Outside
TTITLE8=Sweet Sally Brown
TTITLE9=Love Please Stay
TTITLE10=I'm Better Off Now That You're Gone
TTITLE11=You Could Never Be True
TTITLE12=Roll On Buddy
TTITLE13=I'm Coming Back But I Don't Know When
TTITLE14=I'm Coming Down The Road
TTITLE15=Rabbit In The Log
TTITLE16=In The Pines
EXTD=william hale
EXTT0=
EXTT1=
EXTT2=
EXTT3=
EXTT4=
EXTT5=
EXTT6=
EXTT7=
EXTT8=
EXTT9=
EXTT10=
EXTT11=
EXTT12=
EXTT13=
EXTT14=
EXTT15=
EXTT16=
PLAYORDER=
